<mxfile host="Electron" agent="Mozilla/5.0 (Windows NT 10.0; Win64; x64) AppleWebKit/537.36 (KHTML, like Gecko) draw.io/24.7.8 Chrome/128.0.6613.36 Electron/32.0.1 Safari/537.36" version="24.7.8">
  <diagram name="Page-1" id="P6OWSeMAT1PNVsLnC5oz">
    <mxGraphModel dx="887" dy="1010" grid="1" gridSize="10" guides="1" tooltips="1" connect="1" arrows="1" fold="1" page="1" pageScale="1" pageWidth="850" pageHeight="1100" math="0" shadow="0">
      <root>
        <mxCell id="0" />
        <mxCell id="1" parent="0" />
        <mxCell id="vYlIYUl4mbfyhbjD_Y0H-1" value="" style="edgeStyle=orthogonalEdgeStyle;rounded=0;orthogonalLoop=1;jettySize=auto;html=1;" edge="1" parent="1" source="vYlIYUl4mbfyhbjD_Y0H-2" target="vYlIYUl4mbfyhbjD_Y0H-4">
          <mxGeometry relative="1" as="geometry" />
        </mxCell>
        <mxCell id="vYlIYUl4mbfyhbjD_Y0H-2" value="Start" style="rounded=1;whiteSpace=wrap;html=1;" vertex="1" parent="1">
          <mxGeometry x="40" y="40" width="120" height="60" as="geometry" />
        </mxCell>
        <mxCell id="vYlIYUl4mbfyhbjD_Y0H-3" value="" style="edgeStyle=orthogonalEdgeStyle;rounded=0;orthogonalLoop=1;jettySize=auto;html=1;" edge="1" parent="1" source="vYlIYUl4mbfyhbjD_Y0H-4" target="vYlIYUl4mbfyhbjD_Y0H-7">
          <mxGeometry relative="1" as="geometry" />
        </mxCell>
        <mxCell id="vYlIYUl4mbfyhbjD_Y0H-4" value="z: (int) = 10" style="rounded=0;whiteSpace=wrap;html=1;" vertex="1" parent="1">
          <mxGeometry x="40" y="170" width="120" height="60" as="geometry" />
        </mxCell>
        <mxCell id="vYlIYUl4mbfyhbjD_Y0H-5" value="" style="edgeStyle=orthogonalEdgeStyle;rounded=0;orthogonalLoop=1;jettySize=auto;html=1;" edge="1" parent="1" source="vYlIYUl4mbfyhbjD_Y0H-7" target="vYlIYUl4mbfyhbjD_Y0H-9">
          <mxGeometry relative="1" as="geometry" />
        </mxCell>
        <mxCell id="vYlIYUl4mbfyhbjD_Y0H-6" value="" style="edgeStyle=orthogonalEdgeStyle;rounded=0;orthogonalLoop=1;jettySize=auto;html=1;" edge="1" parent="1" source="vYlIYUl4mbfyhbjD_Y0H-7" target="vYlIYUl4mbfyhbjD_Y0H-14">
          <mxGeometry relative="1" as="geometry" />
        </mxCell>
        <mxCell id="vYlIYUl4mbfyhbjD_Y0H-7" value="z &amp;lt;= 20" style="ellipse;whiteSpace=wrap;html=1;aspect=fixed;" vertex="1" parent="1">
          <mxGeometry x="60" y="310" width="80" height="80" as="geometry" />
        </mxCell>
        <mxCell id="vYlIYUl4mbfyhbjD_Y0H-8" value="" style="edgeStyle=orthogonalEdgeStyle;rounded=0;orthogonalLoop=1;jettySize=auto;html=1;" edge="1" parent="1" source="vYlIYUl4mbfyhbjD_Y0H-9" target="vYlIYUl4mbfyhbjD_Y0H-10">
          <mxGeometry relative="1" as="geometry" />
        </mxCell>
        <mxCell id="vYlIYUl4mbfyhbjD_Y0H-9" value="z" style="shape=document;whiteSpace=wrap;html=1;boundedLbl=1;size=0.625;" vertex="1" parent="1">
          <mxGeometry x="40" y="430" width="120" height="80" as="geometry" />
        </mxCell>
        <mxCell id="vYlIYUl4mbfyhbjD_Y0H-10" value="z += 2" style="rounded=0;whiteSpace=wrap;html=1;" vertex="1" parent="1">
          <mxGeometry x="40" y="560" width="120" height="60" as="geometry" />
        </mxCell>
        <mxCell id="vYlIYUl4mbfyhbjD_Y0H-11" value="" style="endArrow=none;html=1;rounded=0;" edge="1" parent="1">
          <mxGeometry width="50" height="50" relative="1" as="geometry">
            <mxPoint x="190" y="690" as="sourcePoint" />
            <mxPoint x="50" y="690" as="targetPoint" />
            <Array as="points">
              <mxPoint x="100" y="690" />
            </Array>
          </mxGeometry>
        </mxCell>
        <mxCell id="vYlIYUl4mbfyhbjD_Y0H-12" value="" style="endArrow=none;html=1;rounded=0;" edge="1" parent="1">
          <mxGeometry width="50" height="50" relative="1" as="geometry">
            <mxPoint x="30" y="740" as="sourcePoint" />
            <mxPoint x="200" y="740" as="targetPoint" />
          </mxGeometry>
        </mxCell>
        <mxCell id="vYlIYUl4mbfyhbjD_Y0H-13" value="" style="edgeStyle=orthogonalEdgeStyle;rounded=0;orthogonalLoop=1;jettySize=auto;html=1;" edge="1" parent="1" source="vYlIYUl4mbfyhbjD_Y0H-14" target="vYlIYUl4mbfyhbjD_Y0H-15">
          <mxGeometry relative="1" as="geometry" />
        </mxCell>
        <mxCell id="vYlIYUl4mbfyhbjD_Y0H-14" value="finish" style="shape=document;whiteSpace=wrap;html=1;boundedLbl=1;size=0.5;" vertex="1" parent="1">
          <mxGeometry x="230" y="310" width="120" height="80" as="geometry" />
        </mxCell>
        <mxCell id="vYlIYUl4mbfyhbjD_Y0H-15" value="End" style="rounded=1;whiteSpace=wrap;html=1;" vertex="1" parent="1">
          <mxGeometry x="230" y="490" width="120" height="60" as="geometry" />
        </mxCell>
      </root>
    </mxGraphModel>
  </diagram>
</mxfile>
